<svg version="1.1" id="Layer_1" xmlns="http://www.w3.org/2000/svg" xmlns:xlink="http://www.w3.org/1999/xlink" x="0px" y="0px"
	 width="100%" viewBox="0 0 1920 1920" enable-background="new 0 0 1920 1920" xml:space="preserve">
<path fill="#00000000" opacity="1.000000" stroke="none" 
	d="
M1078.000000,1921.000000 
	C718.666687,1921.000000 359.833344,1921.000000 1.000000,1921.000000 
	C1.000000,1281.000000 1.000000,641.000000 1.000000,1.000000 
	C641.000000,1.000000 1281.000000,1.000000 1921.000000,1.000000 
	C1921.000000,641.000000 1921.000000,1281.000000 1921.000000,1921.000000 
	C1640.166626,1921.000000 1359.333374,1921.000000 1078.000000,1921.000000 
M1800.371582,863.500305 
	C1800.371582,747.067871 1800.371582,630.635376 1800.371582,514.087646 
	C1240.657593,514.087646 681.474365,514.087646 121.973213,514.087646 
	C121.973213,516.354370 121.973213,518.328308 121.973221,520.302185 
	C121.974419,871.946594 121.982079,1223.590942 121.970528,1575.235352 
	C121.968613,1633.429810 166.236481,1677.959839 224.359436,1677.961914 
	C715.661621,1677.979614 1206.963745,1677.976196 1698.265991,1677.958862 
	C1755.808228,1677.956787 1800.365112,1633.401245 1800.367188,1575.955200 
	C1800.375488,1338.803589 1800.371338,1101.651978 1800.371582,863.500305 
M926.500000,304.090790 
	C907.287170,304.090790 888.074280,304.090790 868.249023,304.090790 
	C869.038635,305.792389 869.389099,306.692047 869.853760,307.528259 
	C900.339600,362.392792 930.866882,417.234344 961.243835,472.159088 
	C962.958740,475.259735 965.065186,475.620972 968.066162,475.620483 
	C1243.346191,475.575226 1518.626343,475.574371 1793.906372,475.570587 
	C1795.858643,475.570557 1797.810913,475.570587 1800.027100,475.570587 
	C1800.027100,452.009766 1800.028198,429.026733 1800.026978,406.043701 
	C1800.023804,348.738922 1755.278564,304.089539 1697.850952,304.089508 
	C1441.067261,304.089386 1184.283691,304.090271 926.500000,304.090790 
M479.499756,475.571838 
	C625.999329,475.571838 772.498901,475.571838 919.705505,475.571838 
	C917.901062,472.293793 916.626892,469.965363 915.340393,467.643768 
	C875.232300,395.264954 835.077820,322.911682 795.123169,250.448288 
	C792.655457,245.972794 790.120056,244.211365 784.873047,244.215714 
	C598.906677,244.369934 412.940216,244.342926 226.973724,244.371933 
	C222.480682,244.372635 217.978073,244.591537 213.496170,244.926117 
	C163.493668,248.658920 122.137894,292.916534 121.994919,343.023743 
	C121.872719,385.849030 121.968040,428.674896 121.982231,471.500519 
	C121.982643,472.760712 122.152672,474.020844 122.264603,475.571808 
	C241.257309,475.571808 359.878510,475.571808 479.499756,475.571838 
z"/>
<path fill="#000000" opacity="1.000000" stroke="none" 
	d="
M1800.371582,864.000366 
	C1800.371338,1101.651978 1800.375488,1338.803589 1800.367188,1575.955200 
	C1800.365112,1633.401245 1755.808228,1677.956787 1698.265991,1677.958862 
	C1206.963745,1677.976196 715.661621,1677.979614 224.359436,1677.961914 
	C166.236481,1677.959839 121.968613,1633.429810 121.970528,1575.235352 
	C121.982079,1223.590942 121.974419,871.946594 121.973221,520.302185 
	C121.973213,518.328308 121.973213,516.354370 121.973213,514.087646 
	C681.474365,514.087646 1240.657593,514.087646 1800.371582,514.087646 
	C1800.371582,630.635376 1800.371582,747.067871 1800.371582,864.000366 
M373.869049,1061.298706 
	C370.224274,1113.085083 374.633331,1164.166504 387.759247,1214.405518 
	C410.505859,1301.467407 454.076080,1376.613037 519.200134,1438.630859 
	C610.295044,1525.380615 719.201904,1571.070679 845.047119,1571.691162 
	C1072.205566,1572.811035 1299.373291,1572.007568 1526.537231,1572.006470 
	C1528.203735,1572.006470 1529.876099,1572.079590 1531.535645,1571.968262 
	C1540.990479,1571.333984 1548.618652,1563.919678 1549.318237,1554.738770 
	C1550.047363,1545.168335 1543.682617,1536.702148 1534.116455,1534.786865 
	C1531.695923,1534.302246 1529.156494,1534.268066 1526.671753,1534.267700 
	C1365.840454,1534.242798 1205.009033,1534.242676 1044.177734,1534.240479 
	C1042.307251,1534.240356 1040.436646,1534.240479 1038.566162,1534.240479 
	C1039.779419,1532.719482 1041.061279,1532.084229 1042.366089,1531.500000 
	C1074.253906,1517.221436 1104.225830,1499.678589 1132.355103,1478.948486 
	C1274.882446,1373.911255 1348.036987,1197.529297 1320.688965,1023.312378 
	C1304.181885,918.156799 1258.482910,827.185120 1181.171631,754.071472 
	C1057.478882,637.094727 910.621155,595.498413 744.223999,631.029541 
	C625.593079,656.361084 531.290283,721.599182 460.565216,819.993835 
	C409.010040,891.718872 380.601898,972.239502 373.869049,1061.298706 
z"/>
<path fill="#020202" opacity="1.000000" stroke="none" 
	d="
M927.000000,304.090790 
	C1184.283691,304.090271 1441.067261,304.089386 1697.850952,304.089508 
	C1755.278564,304.089539 1800.023804,348.738922 1800.026978,406.043701 
	C1800.028198,429.026733 1800.027100,452.009766 1800.027100,475.570587 
	C1797.810913,475.570587 1795.858643,475.570557 1793.906372,475.570587 
	C1518.626343,475.574371 1243.346191,475.575226 968.066162,475.620483 
	C965.065186,475.620972 962.958740,475.259735 961.243835,472.159088 
	C930.866882,417.234344 900.339600,362.392792 869.853760,307.528259 
	C869.389099,306.692047 869.038635,305.792389 868.249023,304.090790 
	C888.074280,304.090790 907.287170,304.090790 927.000000,304.090790 
M1039.499878,408.780518 
	C1254.104614,408.780518 1468.709229,408.780640 1683.313965,408.778656 
	C1685.146484,408.778656 1686.990112,408.876434 1688.809570,408.714722 
	C1701.622925,407.575684 1709.679321,395.569122 1705.706543,383.598328 
	C1702.893677,375.122284 1695.709229,370.629791 1684.902832,370.629700 
	C1447.138184,370.627258 1209.373535,370.627747 971.608826,370.630463 
	C969.776672,370.630463 967.872131,370.354645 966.128418,370.757477 
	C963.092468,371.458832 959.862793,372.090912 957.233154,373.635345 
	C949.796204,378.003265 946.622192,386.627960 948.933838,394.789093 
	C951.327942,403.241028 958.613159,408.716736 968.020264,408.749847 
	C991.513184,408.832550 1015.006531,408.779236 1039.499878,408.780518 
z"/>
<path fill="#020202" opacity="1.000000" stroke="none" 
	d="
M478.999725,475.571838 
	C359.878510,475.571808 241.257309,475.571808 122.264603,475.571808 
	C122.152672,474.020844 121.982643,472.760712 121.982231,471.500519 
	C121.968040,428.674896 121.872719,385.849030 121.994919,343.023743 
	C122.137894,292.916534 163.493668,248.658920 213.496170,244.926117 
	C217.978073,244.591537 222.480682,244.372635 226.973724,244.371933 
	C412.940216,244.342926 598.906677,244.369934 784.873047,244.215714 
	C790.120056,244.211365 792.655457,245.972794 795.123169,250.448288 
	C835.077820,322.911682 875.232300,395.264954 915.340393,467.643768 
	C916.626892,469.965363 917.901062,472.293793 919.705505,475.571838 
	C772.498901,475.571838 625.999329,475.571838 478.999725,475.571838 
M300.712402,305.681824 
	C287.617737,298.612946 273.674469,295.656006 258.813141,296.766479 
	C227.258102,299.124237 200.061066,321.510193 191.504913,352.292908 
	C183.021408,382.814301 194.650391,415.705383 220.448715,434.156616 
	C246.669968,452.910278 281.390594,453.343842 307.619934,435.245056 
	C354.484039,402.907806 351.239563,335.726624 300.712402,305.681824 
M634.653931,309.088806 
	C633.432190,309.955780 632.188599,310.793610 630.991943,311.693878 
	C602.780334,332.917511 592.723999,370.471649 606.672729,402.483093 
	C620.781555,434.861969 655.276367,453.637604 689.261230,447.436218 
	C720.135254,441.802490 744.241760,418.982483 750.810486,389.172028 
	C757.382751,359.345062 745.249146,327.984894 720.355103,310.458130 
	C694.831299,292.487976 662.265991,291.824158 634.653931,309.088806 
M532.206421,328.325256 
	C512.795715,303.000824 487.267670,292.463806 455.853149,298.034393 
	C415.129517,305.255829 388.170898,345.481262 395.815155,386.613708 
	C403.374390,427.288635 443.206696,454.854980 483.560028,447.338379 
	C538.955933,437.019806 564.124084,376.300598 532.206421,328.325256 
z"/>
<path fill="#FCFCFC" opacity="1.000000" stroke="none" 
	d="
M373.894165,1060.832520 
	C380.601898,972.239502 409.010040,891.718872 460.565216,819.993835 
	C531.290283,721.599182 625.593079,656.361084 744.223999,631.029541 
	C910.621155,595.498413 1057.478882,637.094727 1181.171631,754.071472 
	C1258.482910,827.185120 1304.181885,918.156799 1320.688965,1023.312378 
	C1348.036987,1197.529297 1274.882446,1373.911255 1132.355103,1478.948486 
	C1104.225830,1499.678589 1074.253906,1517.221436 1042.366089,1531.500000 
	C1041.061279,1532.084229 1039.779419,1532.719482 1038.566162,1534.240479 
	C1040.436646,1534.240479 1042.307251,1534.240356 1044.177734,1534.240479 
	C1205.009033,1534.242676 1365.840454,1534.242798 1526.671753,1534.267700 
	C1529.156494,1534.268066 1531.695923,1534.302246 1534.116455,1534.786865 
	C1543.682617,1536.702148 1550.047363,1545.168335 1549.318237,1554.738770 
	C1548.618652,1563.919678 1540.990479,1571.333984 1531.535645,1571.968262 
	C1529.876099,1572.079590 1528.203735,1572.006470 1526.537231,1572.006470 
	C1299.373291,1572.007568 1072.205566,1572.811035 845.047119,1571.691162 
	C719.201904,1571.070679 610.295044,1525.380615 519.200134,1438.630859 
	C454.076080,1376.613037 410.505859,1301.467407 387.759247,1214.405518 
	C374.633331,1164.166504 370.224274,1113.085083 373.894165,1060.832520 
M1158.651367,784.848572 
	C1157.934814,784.151733 1157.227295,783.445374 1156.500488,782.759399 
	C1047.955688,680.298828 919.814026,639.771423 772.535156,664.042664 
	C679.779846,679.328552 600.172302,722.157898 535.257080,790.062378 
	C438.423401,891.354858 397.895935,1012.716553 414.597809,1151.719238 
	C427.125000,1255.977661 472.934479,1344.967529 550.343140,1415.878662 
	C660.602112,1516.882935 790.691162,1553.124023 937.409607,1525.113892 
	C1030.636719,1507.315674 1109.767090,1461.785278 1173.049927,1391.156006 
	C1268.391724,1284.745850 1304.436768,1159.898804 1281.067749,1018.991455 
	C1266.011475,928.206970 1223.815674,850.695374 1158.651367,784.848572 
z"/>
<path fill="#FDFDFD" opacity="1.000000" stroke="none" 
	d="
M1038.999756,408.780518 
	C1015.006531,408.779236 991.513184,408.832550 968.020264,408.749847 
	C958.613159,408.716736 951.327942,403.241028 948.933838,394.789093 
	C946.622192,386.627960 949.796204,378.003265 957.233154,373.635345 
	C959.862793,372.090912 963.092468,371.458832 966.128418,370.757477 
	C967.872131,370.354645 969.776672,370.630463 971.608826,370.630463 
	C1209.373535,370.627747 1447.138184,370.627258 1684.902832,370.629700 
	C1695.709229,370.629791 1702.893677,375.122284 1705.706543,383.598328 
	C1709.679321,395.569122 1701.622925,407.575684 1688.809570,408.714722 
	C1686.990112,408.876434 1685.146484,408.778656 1683.313965,408.778656 
	C1468.709229,408.780640 1254.104614,408.780518 1038.999756,408.780518 
z"/>
<path fill="#FCFCFC" opacity="1.000000" stroke="none" 
	d="
M301.045319,305.842102 
	C351.239563,335.726624 354.484039,402.907806 307.619934,435.245056 
	C281.390594,453.343842 246.669968,452.910278 220.448715,434.156616 
	C194.650391,415.705383 183.021408,382.814301 191.504913,352.292908 
	C200.061066,321.510193 227.258102,299.124237 258.813141,296.766479 
	C273.674469,295.656006 287.617737,298.612946 301.045319,305.842102 
M229.359650,358.066101 
	C224.109390,372.989868 226.013885,386.766144 236.895279,398.492065 
	C247.158478,409.551849 260.097260,413.149078 274.705841,409.418854 
	C292.091095,404.979675 303.547119,389.268921 303.059723,371.205353 
	C302.592438,353.887604 290.026062,338.722717 273.164764,335.128723 
	C254.977066,331.251984 237.893143,340.000671 229.359650,358.066101 
z"/>
<path fill="#FCFCFC" opacity="1.000000" stroke="none" 
	d="
M634.966553,308.906372 
	C662.265991,291.824158 694.831299,292.487976 720.355103,310.458130 
	C745.249146,327.984894 757.382751,359.345062 750.810486,389.172028 
	C744.241760,418.982483 720.135254,441.802490 689.261230,447.436218 
	C655.276367,453.637604 620.781555,434.861969 606.672729,402.483093 
	C592.723999,370.471649 602.780334,332.917511 630.991943,311.693878 
	C632.188599,310.793610 633.432190,309.955780 634.966553,308.906372 
M711.277466,388.632812 
	C714.859985,380.804230 715.739441,372.700378 713.986694,364.253876 
	C709.884216,344.484283 690.467957,331.475433 670.014038,334.867737 
	C650.296387,338.137909 636.137085,356.849762 638.562134,376.432129 
	C640.680420,393.537170 652.776001,406.916718 668.907227,409.998413 
	C686.430054,413.345947 702.079285,405.654541 711.277466,388.632812 
z"/>
<path fill="#FCFCFC" opacity="1.000000" stroke="none" 
	d="
M532.432251,328.606293 
	C564.124084,376.300598 538.955933,437.019806 483.560028,447.338379 
	C443.206696,454.854980 403.374390,427.288635 395.815155,386.613708 
	C388.170898,345.481262 415.129517,305.255829 455.853149,298.034393 
	C487.267670,292.463806 512.795715,303.000824 532.432251,328.606293 
M437.561676,391.826141 
	C438.700256,393.466248 439.744171,395.182495 440.992218,396.734558 
	C452.505707,411.052673 472.529022,415.063324 488.829681,406.356049 
	C505.018494,397.708466 512.739624,378.697998 507.198944,361.128479 
	C501.658905,343.560913 484.363068,332.420197 466.200653,334.720428 
	C439.024780,338.162170 424.934967,365.569305 437.561676,391.826141 
z"/>
<path fill="#010101" opacity="1.000000" stroke="none" 
	d="
M1158.900269,785.099792 
	C1223.815674,850.695374 1266.011475,928.206970 1281.067749,1018.991455 
	C1304.436768,1159.898804 1268.391724,1284.745850 1173.049927,1391.156006 
	C1109.767090,1461.785278 1030.636719,1507.315674 937.409607,1525.113892 
	C790.691162,1553.124023 660.602112,1516.882935 550.343140,1415.878662 
	C472.934479,1344.967529 427.125000,1255.977661 414.597809,1151.719238 
	C397.895935,1012.716553 438.423401,891.354858 535.257080,790.062378 
	C600.172302,722.157898 679.779846,679.328552 772.535156,664.042664 
	C919.814026,639.771423 1047.955688,680.298828 1156.500488,782.759399 
	C1157.227295,783.445374 1157.934814,784.151733 1158.900269,785.099792 
M1064.389038,1158.101440 
	C1065.470215,1159.369263 1066.529907,1160.656128 1067.635742,1161.902100 
	C1096.972168,1194.957031 1144.432007,1204.702271 1184.972046,1186.000854 
	C1224.464844,1167.782715 1247.998901,1124.405884 1241.731567,1081.385010 
	C1235.628540,1039.492798 1204.393188,1005.914124 1163.428101,997.207214 
	C1121.817627,988.363098 1079.561768,1006.484375 1057.019043,1042.840454 
	C1034.959473,1078.417236 1037.720337,1124.018433 1064.389038,1158.101440 
M613.861206,1013.628906 
	C567.668091,981.674255 505.928253,992.785400 473.780548,1038.838623 
	C442.601196,1083.504639 453.628143,1145.339233 498.440826,1177.123413 
	C543.611633,1209.161865 605.515137,1198.938110 637.726196,1154.119507 
	C670.116211,1109.051880 659.789246,1046.868652 613.861206,1013.628906 
M749.915527,1400.518799 
	C750.218628,1402.493530 750.483276,1404.475098 750.830383,1406.442017 
	C760.560425,1461.585571 813.353699,1497.543457 869.064636,1486.979370 
	C922.424561,1476.861206 958.567749,1422.566406 947.695068,1368.859619 
	C936.991211,1315.986694 887.041016,1281.590210 833.021667,1289.893677 
	C781.051086,1297.882324 744.155396,1346.559204 749.915527,1400.518799 
M886.585205,895.106567 
	C937.800110,874.182129 962.929749,815.950500 942.576965,765.359375 
	C921.766479,713.630615 863.767029,688.606262 812.184326,709.100342 
	C761.354919,729.295044 736.116699,787.273987 755.937500,838.314209 
	C776.068787,890.153931 833.681396,915.465271 886.585205,895.106567 
M1132.630615,822.876892 
	C1113.038452,800.724976 1088.384399,788.801819 1058.905640,788.282410 
	C996.640930,787.185242 949.822144,840.295532 957.892151,902.214722 
	C965.154846,957.939270 1020.497498,997.543518 1075.628052,986.468811 
	C1151.199219,971.287903 1182.254883,883.173279 1132.630615,822.876892 
M964.555115,1340.856323 
	C982.614441,1384.060669 1026.012695,1408.683838 1072.117065,1401.883911 
	C1116.906738,1395.277954 1151.265015,1358.969971 1156.303345,1312.920410 
	C1163.496460,1247.175415 1104.274414,1192.312134 1039.388550,1204.610718 
	C976.603455,1216.511108 941.664612,1279.521362 964.555115,1340.856323 
M741.707825,878.934875 
	C741.474182,877.117859 741.238892,875.301086 741.007080,873.483826 
	C734.113342,819.456055 680.471558,779.946045 626.838074,789.392639 
	C572.585632,798.948181 537.591736,845.083557 543.010864,899.908997 
	C548.369995,954.127502 600.699463,995.144104 654.636780,987.403198 
	C708.759521,979.635559 744.789673,935.169617 741.707825,878.934875 
M542.397217,1308.114868 
	C542.522766,1309.441284 542.661072,1310.766724 542.772156,1312.094360 
	C546.924622,1361.703003 588.415161,1401.261963 638.081543,1402.963623 
	C700.232788,1405.093140 748.676392,1352.174438 741.205750,1290.312988 
	C734.362915,1233.650391 680.810181,1194.157227 624.910339,1204.549316 
	C574.937256,1213.839722 541.515442,1255.378906 542.397217,1308.114868 
M774.112671,1108.274536 
	C777.460693,1117.088989 779.629150,1126.601929 784.362488,1134.596191 
	C804.029419,1167.812134 846.069336,1180.385376 881.169495,1164.320312 
	C916.064453,1148.349121 933.581055,1108.520386 921.813721,1071.904419 
	C910.051025,1035.302979 872.314453,1013.229797 834.329407,1020.732422 
	C793.975769,1028.702881 768.512817,1065.286865 774.112671,1108.274536 
z"/>
<path fill="#030303" opacity="1.000000" stroke="none" 
	d="
M229.536285,357.723267 
	C237.893143,340.000671 254.977066,331.251984 273.164764,335.128723 
	C290.026062,338.722717 302.592438,353.887604 303.059723,371.205353 
	C303.547119,389.268921 292.091095,404.979675 274.705841,409.418854 
	C260.097260,413.149078 247.158478,409.551849 236.895279,398.492065 
	C226.013885,386.766144 224.109390,372.989868 229.536285,357.723267 
z"/>
<path fill="#030303" opacity="1.000000" stroke="none" 
	d="
M711.125732,388.977966 
	C702.079285,405.654541 686.430054,413.345947 668.907227,409.998413 
	C652.776001,406.916718 640.680420,393.537170 638.562134,376.432129 
	C636.137085,356.849762 650.296387,338.137909 670.014038,334.867737 
	C690.467957,331.475433 709.884216,344.484283 713.986694,364.253876 
	C715.739441,372.700378 714.859985,380.804230 711.125732,388.977966 
z"/>
<path fill="#030303" opacity="1.000000" stroke="none" 
	d="
M437.363892,391.511963 
	C424.934967,365.569305 439.024780,338.162170 466.200653,334.720428 
	C484.363068,332.420197 501.658905,343.560913 507.198944,361.128479 
	C512.739624,378.697998 505.018494,397.708466 488.829681,406.356049 
	C472.529022,415.063324 452.505707,411.052673 440.992218,396.734558 
	C439.744171,395.182495 438.700256,393.466248 437.363892,391.511963 
z"/>
<path fill="#FCFCFC" opacity="1.000000" stroke="none" 
	d="
M1064.175781,1157.815552 
	C1037.720337,1124.018433 1034.959473,1078.417236 1057.019043,1042.840454 
	C1079.561768,1006.484375 1121.817627,988.363098 1163.428101,997.207214 
	C1204.393188,1005.914124 1235.628540,1039.492798 1241.731567,1081.385010 
	C1247.998901,1124.405884 1224.464844,1167.782715 1184.972046,1186.000854 
	C1144.432007,1204.702271 1096.972168,1194.957031 1067.635742,1161.902100 
	C1066.529907,1160.656128 1065.470215,1159.369263 1064.175781,1157.815552 
M1124.178345,1036.527222 
	C1098.615112,1045.187988 1081.873169,1066.351562 1080.803101,1092.458252 
	C1079.752441,1118.091064 1090.571533,1137.939697 1113.008911,1150.209229 
	C1135.453979,1162.482788 1158.225586,1161.044189 1178.960205,1146.063843 
	C1199.884521,1130.946655 1208.141479,1109.617676 1203.646973,1084.235474 
	C1197.242798,1048.069092 1162.018066,1026.905762 1124.178345,1036.527222 
z"/>
<path fill="#FCFCFC" opacity="1.000000" stroke="none" 
	d="
M614.160767,1013.826843 
	C659.789246,1046.868652 670.116211,1109.051880 637.726196,1154.119507 
	C605.515137,1198.938110 543.611633,1209.161865 498.440826,1177.123413 
	C453.628143,1145.339233 442.601196,1083.504639 473.780548,1038.838623 
	C505.928253,992.785400 567.668091,981.674255 614.160767,1013.826843 
M536.421143,1036.801025 
	C506.623566,1047.071533 489.679932,1075.682983 494.932281,1106.860107 
	C500.540466,1140.149658 532.865417,1162.585938 566.960754,1156.853882 
	C599.459167,1151.390381 622.673096,1119.215210 617.419067,1086.916992 
	C611.120605,1048.198242 575.900330,1026.071899 536.421143,1036.801025 
z"/>
<path fill="#FCFCFC" opacity="1.000000" stroke="none" 
	d="
M749.881714,1400.072266 
	C744.155396,1346.559204 781.051086,1297.882324 833.021667,1289.893677 
	C887.041016,1281.590210 936.991211,1315.986694 947.695068,1368.859619 
	C958.567749,1422.566406 922.424561,1476.861206 869.064636,1486.979370 
	C813.353699,1497.543457 760.560425,1461.585571 750.830383,1406.442017 
	C750.483276,1404.475098 750.218628,1402.493530 749.881714,1400.072266 
M792.248840,1363.870850 
	C782.960571,1387.472046 785.689148,1409.579712 802.143127,1428.925903 
	C817.901917,1447.454590 838.570618,1454.304565 862.394775,1449.279175 
	C891.413208,1443.158081 911.570923,1417.707031 911.397278,1388.602051 
	C911.223938,1359.553833 891.196594,1334.391602 863.249512,1328.109497 
	C834.096191,1321.556396 805.346069,1335.837646 792.248840,1363.870850 
z"/>
<path fill="#FCFCFC" opacity="1.000000" stroke="none" 
	d="
M886.225525,895.251465 
	C833.681396,915.465271 776.068787,890.153931 755.937500,838.314209 
	C736.116699,787.273987 761.354919,729.295044 812.184326,709.100342 
	C863.767029,688.606262 921.766479,713.630615 942.576965,765.359375 
	C962.929749,815.950500 937.800110,874.182129 886.225525,895.251465 
M802.883911,843.597595 
	C803.689331,844.440491 804.477295,845.300964 805.302856,846.123718 
	C825.095093,865.848328 855.182922,870.078369 879.497864,856.559692 
	C903.719849,843.092651 916.061646,815.121094 909.764160,787.963928 
	C903.588623,761.332764 880.029785,741.226746 852.507568,740.297058 
	C826.106567,739.405273 805.768372,750.783142 793.935852,774.494629 
	C781.824829,798.764404 785.394592,821.960632 802.883911,843.597595 
z"/>
<path fill="#FCFCFC" opacity="1.000000" stroke="none" 
	d="
M1132.862793,823.146973 
	C1182.254883,883.173279 1151.199219,971.287903 1075.628052,986.468811 
	C1020.497498,997.543518 965.154846,957.939270 957.892151,902.214722 
	C949.822144,840.295532 996.640930,787.185242 1058.905640,788.282410 
	C1088.384399,788.801819 1113.038452,800.724976 1132.862793,823.146973 
M996.744324,903.618103 
	C1003.489685,927.764099 1019.102478,943.286438 1043.416870,948.648743 
	C1067.507690,953.961853 1088.670532,947.005920 1104.372192,927.815613 
	C1120.287109,908.364502 1123.001465,886.047302 1113.041870,863.017151 
	C1100.349976,833.668945 1067.433472,819.408997 1037.318726,829.361633 
	C1006.432617,839.569092 989.381042,870.249695 996.744324,903.618103 
z"/>
<path fill="#FCFCFC" opacity="1.000000" stroke="none" 
	d="
M964.392517,1340.505859 
	C941.664612,1279.521362 976.603455,1216.511108 1039.388550,1204.610718 
	C1104.274414,1192.312134 1163.496460,1247.175415 1156.303345,1312.920410 
	C1151.265015,1358.969971 1116.906738,1395.277954 1072.117065,1401.883911 
	C1026.012695,1408.683838 982.614441,1384.060669 964.392517,1340.505859 
M1069.246582,1242.031738 
	C1065.442261,1241.618774 1061.645508,1240.941040 1057.832520,1240.834595 
	C1028.208862,1240.007324 1002.187683,1260.619751 996.068970,1289.639771 
	C989.860291,1319.086914 1005.658264,1349.064941 1033.198608,1360.096191 
	C1061.316406,1371.358765 1093.356567,1361.195923 1109.109375,1336.070068 
	C1130.793213,1301.483887 1113.751099,1252.040161 1069.246582,1242.031738 
z"/>
<path fill="#FCFCFC" opacity="1.000000" stroke="none" 
	d="
M741.741882,879.398438 
	C744.789673,935.169617 708.759521,979.635559 654.636780,987.403198 
	C600.699463,995.144104 548.369995,954.127502 543.010864,899.908997 
	C537.591736,845.083557 572.585632,798.948181 626.838074,789.392639 
	C680.471558,779.946045 734.113342,819.456055 741.007080,873.483826 
	C741.238892,875.301086 741.474182,877.117859 741.741882,879.398438 
M664.436462,946.070312 
	C665.807373,945.471497 667.191589,944.901245 668.547180,944.269592 
	C696.833008,931.089722 710.883423,898.164856 700.803223,868.697998 
	C690.499084,838.576538 659.692200,820.942322 629.106140,827.657593 
	C593.304077,835.518127 572.189392,870.854797 582.389221,905.841125 
	C592.422607,940.256470 629.356323,958.640930 664.436462,946.070312 
z"/>
<path fill="#FCFCFC" opacity="1.000000" stroke="none" 
	d="
M542.360474,1307.654541 
	C541.515442,1255.378906 574.937256,1213.839722 624.910339,1204.549316 
	C680.810181,1194.157227 734.362915,1233.650391 741.205750,1290.312988 
	C748.676392,1352.174438 700.232788,1405.093140 638.081543,1402.963623 
	C588.415161,1401.261963 546.924622,1361.703003 542.772156,1312.094360 
	C542.661072,1310.766724 542.522766,1309.441284 542.360474,1307.654541 
M581.783264,1317.610596 
	C589.956787,1351.037842 623.508911,1371.128296 657.283569,1362.818848 
	C690.098572,1354.745728 710.207153,1321.484253 702.194946,1288.531128 
	C694.071167,1255.119141 661.390259,1234.680420 628.163940,1242.232178 
	C594.428894,1249.899536 574.255859,1282.179810 581.783264,1317.610596 
z"/>
<path fill="#FCFCFC" opacity="1.000000" stroke="none" 
	d="
M774.056885,1107.842041 
	C768.512817,1065.286865 793.975769,1028.702881 834.329407,1020.732422 
	C872.314453,1013.229797 910.051025,1035.302979 921.813721,1071.904419 
	C933.581055,1108.520386 916.064453,1148.349121 881.169495,1164.320312 
	C846.069336,1180.385376 804.029419,1167.812134 784.362488,1134.596191 
	C779.629150,1126.601929 777.460693,1117.088989 774.056885,1107.842041 
M826.235657,1064.683472 
	C809.725952,1077.923096 805.876892,1100.339844 817.264465,1116.930664 
	C828.654785,1133.525391 851.489563,1138.667847 868.696655,1128.513550 
	C887.203552,1117.592163 892.990356,1093.821167 881.623291,1075.413818 
	C869.739441,1056.169434 846.196289,1051.369263 826.235657,1064.683472 
z"/>
<path fill="#020202" opacity="1.000000" stroke="none" 
	d="
M1124.556274,1036.383301 
	C1162.018066,1026.905762 1197.242798,1048.069092 1203.646973,1084.235474 
	C1208.141479,1109.617676 1199.884521,1130.946655 1178.960205,1146.063843 
	C1158.225586,1161.044189 1135.453979,1162.482788 1113.008911,1150.209229 
	C1090.571533,1137.939697 1079.752441,1118.091064 1080.803101,1092.458252 
	C1081.873169,1066.351562 1098.615112,1045.187988 1124.556274,1036.383301 
z"/>
<path fill="#020202" opacity="1.000000" stroke="none" 
	d="
M536.791504,1036.649170 
	C575.900330,1026.071899 611.120605,1048.198242 617.419067,1086.916992 
	C622.673096,1119.215210 599.459167,1151.390381 566.960754,1156.853882 
	C532.865417,1162.585938 500.540466,1140.149658 494.932281,1106.860107 
	C489.679932,1075.682983 506.623566,1047.071533 536.791504,1036.649170 
z"/>
<path fill="#020202" opacity="1.000000" stroke="none" 
	d="
M792.431030,1363.533936 
	C805.346069,1335.837646 834.096191,1321.556396 863.249512,1328.109497 
	C891.196594,1334.391602 911.223938,1359.553833 911.397278,1388.602051 
	C911.570923,1417.707031 891.413208,1443.158081 862.394775,1449.279175 
	C838.570618,1454.304565 817.901917,1447.454590 802.143127,1428.925903 
	C785.689148,1409.579712 782.960571,1387.472046 792.431030,1363.533936 
z"/>
<path fill="#020202" opacity="1.000000" stroke="none" 
	d="
M802.644958,843.333252 
	C785.394592,821.960632 781.824829,798.764404 793.935852,774.494629 
	C805.768372,750.783142 826.106567,739.405273 852.507568,740.297058 
	C880.029785,741.226746 903.588623,761.332764 909.764160,787.963928 
	C916.061646,815.121094 903.719849,843.092651 879.497864,856.559692 
	C855.182922,870.078369 825.095093,865.848328 805.302856,846.123718 
	C804.477295,845.300964 803.689331,844.440491 802.644958,843.333252 
z"/>
<path fill="#020202" opacity="1.000000" stroke="none" 
	d="
M996.618408,903.218811 
	C989.381042,870.249695 1006.432617,839.569092 1037.318726,829.361633 
	C1067.433472,819.408997 1100.349976,833.668945 1113.041870,863.017151 
	C1123.001465,886.047302 1120.287109,908.364502 1104.372192,927.815613 
	C1088.670532,947.005920 1067.507690,953.961853 1043.416870,948.648743 
	C1019.102478,943.286438 1003.489685,927.764099 996.618408,903.218811 
z"/>
<path fill="#020202" opacity="1.000000" stroke="none" 
	d="
M1069.663208,1242.112671 
	C1113.751099,1252.040161 1130.793213,1301.483887 1109.109375,1336.070068 
	C1093.356567,1361.195923 1061.316406,1371.358765 1033.198608,1360.096191 
	C1005.658264,1349.064941 989.860291,1319.086914 996.068970,1289.639771 
	C1002.187683,1260.619751 1028.208862,1240.007324 1057.832520,1240.834595 
	C1061.645508,1240.941040 1065.442261,1241.618774 1069.663208,1242.112671 
z"/>
<path fill="#020202" opacity="1.000000" stroke="none" 
	d="
M664.065308,946.191284 
	C629.356323,958.640930 592.422607,940.256470 582.389221,905.841125 
	C572.189392,870.854797 593.304077,835.518127 629.106140,827.657593 
	C659.692200,820.942322 690.499084,838.576538 700.803223,868.697998 
	C710.883423,898.164856 696.833008,931.089722 668.547180,944.269592 
	C667.191589,944.901245 665.807373,945.471497 664.065308,946.191284 
z"/>
<path fill="#020202" opacity="1.000000" stroke="none" 
	d="
M581.672302,1317.207275 
	C574.255859,1282.179810 594.428894,1249.899536 628.163940,1242.232178 
	C661.390259,1234.680420 694.071167,1255.119141 702.194946,1288.531128 
	C710.207153,1321.484253 690.098572,1354.745728 657.283569,1362.818848 
	C623.508911,1371.128296 589.956787,1351.037842 581.672302,1317.207275 
z"/>
<path fill="#030303" opacity="1.000000" stroke="none" 
	d="
M826.518311,1064.459839 
	C846.196289,1051.369263 869.739441,1056.169434 881.623291,1075.413818 
	C892.990356,1093.821167 887.203552,1117.592163 868.696655,1128.513550 
	C851.489563,1138.667847 828.654785,1133.525391 817.264465,1116.930664 
	C805.876892,1100.339844 809.725952,1077.923096 826.518311,1064.459839 
z"/>
</svg>