<svg version="1.1" id="Layer_1" xmlns="http://www.w3.org/2000/svg" xmlns:xlink="http://www.w3.org/1999/xlink" x="0px" y="0px"
	 width="100%" viewBox="0 0 640 640" enable-background="new 0 0 640 640" xml:space="preserve">
<path fill="#000000" opacity="1.000000" stroke="none" 
	d="
M239.674500,472.325287 
	C206.529663,439.224274 173.734970,406.271942 140.667328,373.595795 
	C134.284485,367.288513 125.887917,363.450073 118.487015,358.373657 
	C106.208672,349.951721 104.541061,341.276550 112.867561,328.834290 
	C164.569977,251.575607 216.244843,174.298477 267.941071,97.035614 
	C272.758301,89.835991 277.605896,82.655418 282.536865,75.533478 
	C288.633667,66.727692 298.539215,64.793571 307.508881,70.661362 
	C313.362823,74.490883 319.109772,78.483810 324.913147,82.390854 
	C333.516266,88.182793 335.847290,97.842209 330.156189,106.814705 
	C322.573883,118.768837 314.541656,130.438156 306.673798,142.210510 
	C271.034729,195.535568 235.384964,248.853439 199.744186,302.177338 
	C199.034103,303.239716 198.386520,304.343903 197.709778,305.428589 
	C198.063400,305.764160 198.417007,306.099731 198.770615,306.435303 
	C201.064438,303.917236 203.261826,301.302795 205.666275,298.895233 
	C258.412231,246.081039 311.265350,193.373474 363.870575,140.419571 
	C373.714325,130.510590 384.961792,131.076172 394.209625,140.448288 
	C437.161377,183.977264 480.576477,227.049011 523.812744,270.297424 
	C538.001770,284.490417 538.070312,302.294708 523.778564,316.638458 
	C490.146729,350.392639 456.407684,384.040070 422.728851,417.747498 
	C391.170471,449.332672 359.610046,480.915833 328.097839,512.547058 
	C313.121796,527.579590 295.148712,527.814880 280.179565,512.919067 
	C266.713562,499.519012 253.342468,486.023590 239.674500,472.325287 
M137.951340,351.047119 
	C138.081741,351.181458 138.212143,351.315796 138.814621,351.817535 
	C140.357285,353.297638 141.878372,354.801025 143.446365,356.253784 
	C150.072845,362.393311 155.710358,369.564453 163.000000,375.000000 
	C163.000000,375.000000 162.995743,374.992950 163.220642,375.620911 
	C164.674240,377.204529 166.085831,378.829529 167.594315,380.359039 
	C168.867325,381.649811 170.132645,383.158295 172.306335,382.199493 
	C174.310989,381.315186 175.377563,379.752045 175.608322,377.585052 
	C176.942200,365.058746 178.379501,352.542328 179.566116,340.002136 
	C179.992752,335.493408 177.789413,333.617493 173.266449,334.008881 
	C168.469955,334.423859 163.677567,334.887451 158.885361,335.350250 
	C151.450958,336.068237 144.009827,336.730072 136.590210,337.578766 
	C134.510696,337.816620 132.137085,338.085083 131.328400,340.640656 
	C130.564331,343.055237 131.757782,344.716949 133.500534,346.275757 
	C134.975616,347.595093 136.207947,349.185883 137.951340,351.047119 
M403.540833,182.061508 
	C376.814301,208.803528 350.092834,235.550568 323.360138,262.286438 
	C278.961823,306.689972 234.578735,351.108795 190.100082,395.431732 
	C187.338272,398.183899 187.161469,399.868134 189.995148,402.688446 
	C223.877243,436.410858 257.639923,470.253174 291.464752,504.033173 
	C299.335876,511.893829 308.512268,511.866882 316.512878,503.872467 
	C382.621857,437.814606 448.707001,371.732910 514.770630,305.629730 
	C522.521606,297.874115 522.378479,288.677612 514.678345,280.979156 
	C482.870087,249.177933 451.103424,217.335052 419.235016,185.594269 
	C416.118530,182.490311 413.386597,178.839447 408.572449,176.280228 
	C407.059235,178.044327 405.548096,179.806046 403.540833,182.061508 
M205.667908,359.504333 
	C209.706268,355.544189 213.730194,351.569183 217.790848,347.632019 
	C219.200790,346.264954 219.711594,344.653290 219.775269,342.711578 
	C219.971497,336.729065 220.413406,330.753296 220.542786,324.770203 
	C220.681580,318.352448 220.574127,311.929352 220.574127,305.508606 
	C220.044357,305.145233 219.514572,304.781860 218.984802,304.418488 
	C215.605728,308.233002 212.384125,312.204376 208.793640,315.808289 
	C206.291641,318.319641 205.149490,320.963898 204.833786,324.545197 
	C203.967987,334.366211 204.516922,344.185944 204.324799,354.001587 
	C204.288330,355.864380 203.383209,357.967041 205.667908,359.504333 
M295.024475,270.490326 
	C296.198181,269.312805 297.240356,267.954407 298.568207,266.988861 
	C304.597290,262.604736 306.098755,256.627747 305.752167,249.483444 
	C305.366028,241.524200 305.776459,233.527466 305.786896,225.546967 
	C305.789124,223.846390 306.219360,222.015671 304.022003,218.915710 
	C300.393494,223.144867 297.339600,227.102859 293.853271,230.633911 
	C291.337982,233.181488 290.165314,235.784698 290.203674,239.421326 
	C290.282440,246.891113 290.238647,254.368011 289.486176,261.836029 
	C289.062317,266.042847 289.409790,270.327332 289.409790,275.757599 
	C291.697937,273.609070 293.106689,272.286316 295.024475,270.490326 
M332.347504,215.537048 
	C332.347504,220.880356 332.347504,226.223663 332.347504,232.296173 
	C342.002258,224.666031 350.422150,217.640564 348.131378,204.636169 
	C347.937134,203.533493 348.426941,202.328094 348.431396,201.169769 
	C348.461792,193.270020 348.447327,185.370102 348.447327,176.768967 
	C342.970947,181.239563 338.748901,185.883667 334.423035,190.416443 
	C333.445801,191.440384 333.236298,192.760147 333.181519,194.117905 
	C332.906738,200.930298 332.626373,207.742462 332.347504,215.537048 
M212.312164,236.016113 
	C205.646332,237.448654 198.971619,238.841858 192.321762,240.345093 
	C190.892593,240.668152 189.006699,240.986465 188.264557,241.994293 
	C184.483154,247.129272 181.008286,252.489960 176.988983,258.416168 
	C178.951630,258.530670 179.791901,258.758057 180.549713,258.597107 
	C191.770569,256.214294 202.988037,253.813675 214.182297,251.309906 
	C215.413406,251.034546 216.867767,250.376740 217.586349,249.420990 
	C221.424011,244.316833 225.145538,239.114563 228.298279,233.140976 
	C222.757492,233.293747 218.013885,234.985764 212.312164,236.016113 
M290.488190,141.034500 
	C291.898193,138.441589 294.178192,136.350433 295.231537,132.737473 
	C284.468353,135.025162 274.220795,137.907974 263.775543,139.236115 
	C252.035004,140.728958 250.151642,150.663651 244.236191,158.083786 
	C246.942657,158.920593 248.541595,158.594086 250.168686,158.240662 
	C257.793915,156.584412 265.365997,154.525681 273.074280,153.453537 
	C280.977661,152.354248 286.685089,148.843887 290.488190,141.034500 
M263.482880,269.467163 
	C263.514374,267.363373 264.001587,265.168182 261.599121,262.574768 
	C257.205078,267.193756 252.854141,271.706085 248.599365,276.307251 
	C247.972733,276.984924 247.474823,278.082367 247.469742,278.988678 
	C247.397476,291.885773 247.420471,304.783386 247.420471,318.840027 
	C251.692123,314.298492 255.432831,310.082123 259.447540,306.145233 
	C261.758423,303.879120 262.725861,301.478088 262.736511,298.224640 
	C262.766907,288.917511 262.421143,279.593964 263.482880,269.467163 
M175.088516,302.585052 
	C187.057480,301.736786 188.792862,290.770660 194.322891,283.297943 
	C181.557449,285.404816 169.133255,288.094574 156.721848,290.842102 
	C155.955292,291.011810 155.085938,291.474670 154.608841,292.074890 
	C150.630569,297.079712 147.269089,302.476044 143.271088,309.319855 
	C154.608429,306.898438 164.438766,304.798920 175.088516,302.585052 
M243.757019,202.234802 
	C250.555252,200.846970 258.937592,191.470657 260.368835,183.633881 
	C258.873871,183.069763 257.455658,183.561356 255.999252,183.883011 
	C247.909515,185.669601 239.883438,188.278839 231.697449,188.969437 
	C219.509262,189.997665 216.582840,199.557953 211.569885,207.445114 
	C211.769791,207.946014 211.969696,208.446899 212.169601,208.947800 
	C222.432602,206.787811 232.695602,204.627823 243.757019,202.234802 
M290.487793,88.960739 
	C286.175323,95.422646 281.862854,101.884544 277.550415,108.346451 
	C277.755402,108.717133 277.960358,109.087822 278.165344,109.458504 
	C290.707397,106.676384 303.301544,104.102600 315.760345,100.987686 
	C319.595764,100.028770 319.812805,96.295044 316.402374,93.821594 
	C311.562103,90.311111 306.335236,87.322693 301.584351,83.703255 
	C297.682770,80.730827 295.056274,81.389084 292.792816,85.436928 
	C292.226196,86.450287 291.534424,87.393684 290.487793,88.960739 
M393.529602,171.987595 
	C399.455017,165.886444 399.438324,165.673508 393.337585,159.731720 
	C390.116119,156.594223 386.994659,153.352982 383.738556,150.252548 
	C382.112061,148.703842 380.591003,146.317535 377.841827,147.609909 
	C375.343292,148.784470 375.384247,151.334793 375.362488,153.705261 
	C375.264526,164.365158 375.147491,175.024918 375.083588,185.685013 
	C375.077271,186.744949 374.646179,188.070557 377.089630,189.095001 
	C382.224792,183.747772 387.626434,178.123077 393.529602,171.987595 
z"/>
<path fill="#000000" opacity="1.000000" stroke="none" 
	d="
M393.218262,337.045105 
	C387.371918,358.963257 381.603210,380.477875 375.827179,401.990570 
	C375.438995,403.436310 375.031158,404.878632 374.573120,406.303467 
	C371.037842,417.300537 358.547791,420.713257 350.301880,412.539124 
	C330.204407,392.616486 310.250580,372.545288 290.473511,352.304718 
	C282.376862,344.018311 285.569550,331.672119 296.671661,328.582306 
	C324.374023,320.872467 352.159668,313.452087 379.992706,306.226654 
	C389.970428,303.636444 399.041840,312.972504 396.873016,323.142517 
	C395.903259,327.689667 394.500397,332.144409 393.218262,337.045105 
z"/>
<path fill="#000000" opacity="1.000000" stroke="none" 
	d="
M163.003448,375.002197 
	C160.761917,369.748871 161.557190,366.265533 165.287247,365.016418 
	C168.700211,363.873474 172.610138,366.089417 173.822449,369.825073 
	C174.612381,372.259186 174.289444,374.577576 172.248474,376.090637 
	C169.328049,378.255676 166.354904,377.523254 163.308472,375.207184 
	C162.995743,374.992950 163.000000,375.000000 163.003448,375.002197 
z"/>
<path fill="#000000" opacity="1.000000" stroke="none" 
	d="
M137.749527,350.851807 
	C137.404099,350.187073 137.354965,349.657867 137.101822,349.257690 
	C135.157822,346.184357 135.163895,343.217621 138.151382,340.956177 
	C140.686035,339.037476 143.492126,339.475311 145.889862,341.467743 
	C148.490891,343.629150 149.117142,346.561829 147.686096,349.484070 
	C146.093735,352.735718 143.117218,352.819824 140.010910,351.779327 
	C139.699371,351.674988 139.381119,351.590668 138.704254,351.473602 
	C138.212143,351.315796 138.081741,351.181458 137.749527,350.851807 
z"/>
</svg>